# xmcd
#
# Track frame offsets:
# 150
# 11160
# 19814
# 30653
# 42637
# 52444
# 62016
# 74004
# 85098
# 95535
# 107955
# 119689
# 132277
# 143650
# 155891
# 168955
# 177627
# 188902
# 197591
# 210109
# 224006
# 238398
# 252960
# 264527
# 276767
# 286131
# 296701
# 309580
# 320518
# 334129
#
# Disc length: 4600 seconds
#
#
# Revision: 0
# Processed by: cddbd v1.5.1PL0 Copyright (c) Steve Scherf et al.
# Submitted via: FreeRIP 2.92 
#
DISCID=e511f61e
DTITLE=Peppermint Harris - I Got Loaded
DYEAR=1900
DGENRE=Blues
TTITLE0=I Got Loaded
TTITLE1=Just You and Me
TTITLE2=Right Back On It
TTITLE3=Have Another Drink and Talk To Me
TTITLE4=Hey Little Schoolgirl
TTITLE5=There's a Dead Cat On the Line
TTITLE6=I Always End Up Blue
TTITLE7=P H Blues
TTITLE8=I Never Get Enough of You
TTITLE9=Three Sheets In the Wind
TTITLE10=Let the Back Door Hit You
TTITLE11=You Got Me Wondering
TTITLE12=Maggie's Boogie
TTITLE13=I Don't Care
TTITLE14=Love At First Sight
TTITLE15=Messin' 'Round With the Blues
TTITLE16=Fat Cat Boogie
TTITLE17=I Cry For My Baby
TTITLE18=Need Your Lovin'
TTITLE19=Middle of Winter
TTITLE20=Too Late To Worry
TTITLE21=Ooo Wee Baby
TTITLE22=I Sure Do Miss My Baby
TTITLE23=Goodbye Baby
TTITLE24=The Blues Picks On Me
TTITLE25=Black Cat Bone
TTITLE26=It's You, Yes It's You
TTITLE27=This Is Goodbye
TTITLE28=Wasted Love
TTITLE29=Bye Bye, Fare Thee Well
EXTD=
EXTT0=
EXTT1=
EXTT2=
EXTT3=
EXTT4=
EXTT5=
EXTT6=
EXTT7=
EXTT8=
EXTT9=
EXTT10=
EXTT11=
EXTT12=
EXTT13=
EXTT14=
EXTT15=
EXTT16=
EXTT17=
EXTT18=
EXTT19=
EXTT20=
EXTT21=
EXTT22=
EXTT23=
EXTT24=
EXTT25=
EXTT26=
EXTT27=
EXTT28=
EXTT29=
PLAYORDER=
